<?xml version="1.0" encoding="iso-8859-1"?>
<!-- Generator: Adobe Illustrator 19.0.0, SVG Export Plug-In . SVG Version: 6.00 Build 0)  -->
<svg version="1.1" id="Capa_1" xmlns="http://www.w3.org/2000/svg" xmlns:xlink="http://www.w3.org/1999/xlink" x="0px" y="0px"
	 viewBox="0 0 458.745 458.745" style="enable-background:new 0 0 458.745 458.745;" xml:space="preserve">
<path style="fill:#393856;" d="M239.833,218.912c-14.856-14.856,2.992-48.24,28.288-73.536s58.648-43.2,73.536-28.288L330.345,128.4
	c-3.312-3.264-25.208,2.576-50.912,28.288s-31.568,47.632-28.288,50.912L239.833,218.912z"/>
<circle style="fill:#FFD33F;" cx="370.745" cy="88" r="88"/>
<path style="fill:#75C9C1;" d="M295.609,272.488l-9.6-72.232c-1.926-14.314-13.202-25.563-27.52-27.456l-72.232-9.6
	c-14.822-1.994-29.727,3.034-40.312,13.6L9.369,313.376c-12.492,12.496-12.492,32.752,0,45.248l90.752,90.752
	c12.496,12.492,32.752,12.492,45.248,0L281.945,312.8C292.534,302.227,297.587,287.321,295.609,272.488L295.609,272.488z
	 M234.745,248c-13.255,0-24-10.745-24-24c0-13.255,10.745-24,24-24c13.255,0,24,10.745,24,24C258.745,237.255,248,248,234.745,248z"
	/>
<g>
	<path style="fill:#393856;" d="M66.745,368c-17.673,0-32-14.327-32-32s14.327-32,32-32s32,14.327,32,32S84.418,368,66.745,368z
		 M66.745,320c-8.837,0-16,7.163-16,16s7.163,16,16,16s16-7.163,16-16S75.582,320,66.745,320z"/>
	<path style="fill:#393856;" d="M114.745,248h16v176h-16V248z"/>
	<path style="fill:#393856;" d="M178.745,368c-17.673,0-32-14.327-32-32s14.327-32,32-32s32,14.327,32,32S196.418,368,178.745,368z
		 M178.745,320c-8.837,0-16,7.163-16,16s7.163,16,16,16s16-7.163,16-16S187.582,320,178.745,320z"/>
</g>
<path style="fill:#FAA41B;" d="M370.745,80c-4.418,0-8-3.582-8-8s3.582-8,8-8s8,3.582,8,8h16c-0.042-10.134-6.445-19.15-16-22.528
	V40h-16v9.472c-12.473,4.393-19.023,18.066-14.629,30.539c3.38,9.596,12.455,16.009,22.629,15.989c4.418,0,8,3.582,8,8
	c0,4.418-3.582,8-8,8s-8-3.582-8-8h-16c0.042,10.134,6.445,19.15,16,22.528V136h16v-9.472c12.473-4.393,19.023-18.066,14.629-30.539
	C389.995,86.393,380.919,79.981,370.745,80z"/>
<path style="fill:#393856;" d="M254.137,224.32c-5.306,0.224-10.473-1.729-14.304-5.408l11.312-11.312
	c3.28,3.24,25.2-2.584,50.912-28.288s31.568-47.632,28.288-50.912l11.312-11.312c14.856,14.856-2.992,48.24-28.288,73.536
	C294.441,209.6,270.969,224.32,254.137,224.32L254.137,224.32z"/>
<g>
</g>
<g>
</g>
<g>
</g>
<g>
</g>
<g>
</g>
<g>
</g>
<g>
</g>
<g>
</g>
<g>
</g>
<g>
</g>
<g>
</g>
<g>
</g>
<g>
</g>
<g>
</g>
<g>
</g>
</svg>
